<svg width="22" height="23" viewBox="0 0 22 23" fill="none" xmlns="http://www.w3.org/2000/svg">
<g clip-path="url(#clip0_672_1765)">
<path d="M20.9996 22.1122H1.0004C0.98628 20.4583 1.34915 18.8228 2.06145 17.3301C2.77375 15.8373 3.81677 14.5265 5.11134 13.497C5.48063 13.2071 5.94746 13.0707 6.41473 13.1163C6.882 13.1618 7.31373 13.3857 7.62012 13.7414C8.50897 14.8014 9.7067 15.4458 11.0066 15.4458C12.3066 15.4458 13.5154 14.7903 14.4198 13.7103C14.7184 13.3638 15.1391 13.1458 15.5943 13.1015C16.0496 13.0572 16.5044 13.1901 16.8642 13.4725C18.1665 14.5021 19.2162 15.8158 19.9329 17.3132C20.6496 18.8107 21.0145 20.4521 20.9996 22.1122Z" fill="white"/>
<path d="M16.1112 6.66861C16.1201 7.9786 15.8217 9.27243 15.2401 10.4462C14.3223 12.2528 12.7668 13.4417 11.0003 13.4417C9.23366 13.4417 7.66706 12.2528 6.76043 10.4462C6.17878 9.27243 5.88044 7.9786 5.88935 6.66861C5.88935 2.92654 8.17815 -0.108887 11.0003 -0.108887C13.8224 -0.108887 16.1112 2.92654 16.1112 6.66861Z" fill="white"/>
</g>
<defs>
<clipPath id="clip0_672_1765">
<rect width="22" height="22" fill="white" transform="translate(0 0.00146484)"/>
</clipPath>
</defs>
</svg>
